# Blender v2.83.20 OBJ File: ''
# www.blender.org
mtllib Fridge_Door.mtl
o SM_Fridge_Mesh.032
v 0.509758 0.152324 0.052092
v 0.506358 0.155725 0.052092
v 0.506358 0.155724 0.108827
v 0.509758 0.152324 0.107478
v 0.506358 0.166163 0.112966
v 0.506358 0.166162 0.052092
v 0.509758 0.169563 0.052092
v 0.540582 0.166163 0.112966
v 0.537182 0.169563 0.052092
v 0.540582 0.166162 0.052092
v 0.537182 0.152324 0.107479
v 0.540582 0.155724 0.108827
v 0.540582 0.155725 0.052092
v 0.537182 0.152324 0.052092
v 0.506358 0.146626 0.118494
v 0.509758 0.145157 0.115094
v 0.506358 0.151136 0.128932
v 0.540582 0.151136 0.128932
v 0.537182 0.145157 0.115094
v 0.540582 0.146626 0.118494
v 0.506358 -0.054679 0.118494
v 0.509758 -0.053210 0.115094
v 0.506358 -0.059189 0.128932
v 0.540582 -0.059189 0.128932
v 0.537182 -0.053210 0.115094
v 0.540582 -0.054679 0.118494
v 0.506358 -0.063777 0.108827
v 0.509758 -0.060377 0.107478
v 0.506358 -0.074215 0.112966
v 0.540582 -0.074215 0.112966
v 0.537182 -0.060377 0.107479
v 0.540582 -0.063777 0.108827
v 0.506358 -0.063777 0.052092
v 0.509758 -0.060377 0.052092
v 0.509758 -0.077615 0.052092
v 0.506358 -0.074215 0.052092
v 0.540582 -0.074215 0.052092
v 0.537182 -0.077615 0.052092
v 0.537182 -0.060377 0.052092
v 0.540582 -0.063777 0.052092
v 0.509758 0.169563 0.110915
v 0.537182 0.169563 0.110915
v 0.509758 0.167232 0.116790
v 0.509758 0.154936 0.129856
v 0.537182 0.154936 0.129856
v 0.537182 0.167232 0.116790
v 0.509758 0.149205 0.132332
v 0.509758 -0.057258 0.132332
v 0.537182 -0.057258 0.132332
v 0.537182 0.149205 0.132332
v 0.509758 -0.062988 0.129856
v 0.509758 -0.075285 0.116790
v 0.537182 -0.075285 0.116790
v 0.537182 -0.062988 0.129856
v 0.509758 -0.077615 0.110915
v 0.537182 -0.077615 0.110915
v 0.506358 0.079524 0.118494
v 0.506358 0.010418 0.118494
v 0.506358 0.008915 0.128932
v 0.506358 0.081028 0.128932
v 0.509758 0.080384 0.132332
v 0.509758 0.009558 0.132332
v 0.537182 0.009559 0.132332
v 0.537182 0.080384 0.132332
v 0.540582 0.081028 0.128932
v 0.540582 0.008915 0.128932
v 0.540582 0.010418 0.118494
v 0.540582 0.079525 0.118494
v 0.537182 0.079035 0.115094
v 0.537182 0.010908 0.115094
v 0.509758 0.010908 0.115094
v 0.509758 0.079035 0.115094
v 0.510374 0.076448 0.119719
v 0.510374 0.013495 0.119719
v 0.510374 0.012130 0.127707
v 0.510374 0.077813 0.127707
v 0.512976 0.077229 0.130309
v 0.512976 0.012714 0.130309
v 0.533964 0.012714 0.130309
v 0.533964 0.077229 0.130309
v 0.536566 0.077813 0.127707
v 0.536566 0.012130 0.127707
v 0.536566 0.013495 0.119719
v 0.536566 0.076448 0.119719
v 0.533964 0.076003 0.117116
v 0.533964 0.013940 0.117116
v 0.512976 0.013940 0.117116
v 0.512976 0.076003 0.117116
v 0.553605 -0.249755 0.023339
v 0.553605 -0.249755 0.002792
v 0.553605 0.373707 0.002792
v 0.553605 0.373707 0.023339
v 0.553605 0.314892 0.073917
v 0.553605 -0.169485 0.073917
v 0.480786 -0.382300 0.002792
v 0.458787 0.483384 0.002792
v 0.458787 0.483384 0.023339
v 0.480786 -0.382300 0.023339
v 0.000586 -0.169485 0.073917
v 0.000586 0.314892 0.073917
v 0.000586 0.373707 0.023339
v 0.000586 0.373707 0.002792
v 0.000586 -0.249755 0.002792
v 0.000586 -0.249755 0.023339
v 0.095487 0.483384 0.002792
v 0.073405 -0.382300 0.002792
v 0.095487 0.483384 0.023339
v 0.073405 -0.382300 0.023339
v 0.111110 0.441796 0.073917
v 0.094656 -0.340712 0.073917
v 0.459535 -0.340712 0.073917
v 0.443163 0.441796 0.073917
v 0.419395 -0.228430 0.032364
v 0.485434 -0.107726 0.032364
v 0.485434 0.284068 0.032364
v 0.475835 0.294739 0.032364
v 0.278564 -0.217845 0.032364
v 0.288164 -0.228430 0.032364
v 0.272871 0.288119 0.073917
v 0.288164 0.296555 0.032364
v 0.278564 0.286057 0.032364
v 0.475835 0.294740 0.067314
v 0.288164 0.296555 0.067314
v 0.285984 0.302460 0.073917
v 0.485434 -0.107725 0.067314
v 0.485434 0.284068 0.067314
v 0.419395 -0.228430 0.067314
v 0.288164 -0.228430 0.067314
v 0.273418 0.288421 0.073917
v 0.278564 0.286057 0.067314
v 0.278564 -0.217845 0.067314
v 0.492037 -0.109758 0.073917
v 0.423115 -0.235710 0.073917
v 0.285429 -0.235710 0.073917
v 0.271961 -0.220861 0.073917
v 0.478608 0.301995 0.073917
v 0.492037 0.287066 0.073917
v 0.000586 0.292039 0.073917
v 0.000586 0.295297 0.002792
v 0.000586 0.316603 0.002792
v 0.553605 0.294806 0.073917
v 0.553605 0.297878 0.002792
v 0.553605 0.318542 0.002792
v 0.030509 -0.223951 0.073917
v 0.037804 -0.237230 0.073917
v 0.006887 -0.261224 0.023339
v 0.006731 -0.260941 0.002792
v 0.515601 -0.238660 0.073917
v 0.553605 -0.167753 0.002792
v 0.283588 -0.340712 0.073917
v 0.286629 -0.382300 0.023339
v 0.419055 -0.340712 0.073917
v 0.426395 -0.382300 0.023339
v 0.286854 -0.382300 0.002792
v 0.427154 -0.382300 0.002792
v 0.000586 -0.170267 0.002792
v 0.243913 -0.271282 0.054612
v 0.243913 -0.271282 0.048805
v 0.243913 0.340537 0.054612
v 0.528247 0.340537 0.054612
v 0.243913 0.340537 0.048805
v 0.528247 0.340537 0.048805
v 0.528247 -0.160352 0.048805
v 0.471979 -0.271282 0.048805
v 0.471979 -0.271282 0.054612
v 0.528247 -0.160352 0.054612
vt 0.491551 0.944077
vt 0.496538 0.945152
vt 0.492082 0.974459
vt 0.486595 0.973619
vt 0.498414 0.946570
vt 0.508705 0.946358
vt 0.512502 0.975342
vt 0.494624 0.974809
vt 0.515090 0.974966
vt 0.510606 0.944979
vt 0.515619 0.943850
vt 0.520686 0.974067
vt 0.518227 0.943421
vt 0.533966 0.942642
vt 0.537080 0.971947
vt 0.523100 0.973677
vt 0.491538 0.937092
vt 0.496724 0.936574
vt 0.498583 0.937685
vt 0.508453 0.937457
vt 0.508654 0.943880
vt 0.498497 0.944095
vt 0.510337 0.936365
vt 0.515557 0.936879
vt 0.518168 0.937010
vt 0.533833 0.937038
vt 0.478382 0.827492
vt 0.477552 0.823658
vt 0.509316 0.822264
vt 0.508825 0.826156
vt 0.477757 0.821866
vt 0.477311 0.811716
vt 0.508510 0.810347
vt 0.508955 0.820497
vt 0.476951 0.809949
vt 0.477441 0.806057
vt 0.507884 0.804721
vt 0.508714 0.808555
vt 0.477578 0.804268
vt 0.477133 0.794119
vt 0.507146 0.792801
vt 0.507591 0.802951
vt 0.523972 0.861364
vt 0.524512 0.868374
vt 0.519638 0.869852
vt 0.518711 0.861285
vt 0.517613 0.868914
vt 0.507519 0.869917
vt 0.507111 0.863544
vt 0.516917 0.862520
vt 0.505646 0.871126
vt 0.500563 0.870405
vt 0.500071 0.863522
vt 0.505180 0.862588
vt 0.497860 0.870335
vt 0.482406 0.869838
vt 0.482423 0.864361
vt 0.497597 0.863982
vt 0.532309 0.897927
vt 0.526803 0.899339
vt 0.524255 0.899948
vt 0.506356 0.901077
vt 0.507640 0.872391
vt 0.517864 0.871378
vt 0.503774 0.900954
vt 0.498204 0.900625
vt 0.495676 0.900452
vt 0.480890 0.899702
vt 0.538864 0.965833
vt 0.552125 0.965251
vt 0.553842 0.966823
vt 0.554063 0.971871
vt 0.552491 0.973587
vt 0.539230 0.974169
vt 0.537513 0.972597
vt 0.537292 0.967549
vt 0.552107 0.964847
vt 0.538846 0.965429
vt 0.537130 0.963858
vt 0.536908 0.958810
vt 0.538480 0.957093
vt 0.551742 0.956511
vt 0.553458 0.958083
vt 0.553679 0.963131
vt 0.508461 0.935092
vt 0.506918 0.861196
vt 0.484117 0.973221
vt 0.488874 0.943810
vt 0.488940 0.937368
vt 0.498577 0.935318
vt 0.508688 0.827945
vt 0.478675 0.829262
vt 0.516742 0.860163
vt 0.526627 0.861310
vt 0.527146 0.867772
vt 0.534869 0.897256
vt 0.518764 0.832884
vt 0.523162 0.831455
vt 0.494010 0.906994
vt 0.489356 0.906010
vt 0.502444 0.833992
vt 0.516747 0.832715
vt 0.496079 0.906616
vt 0.510572 0.906927
vt 0.500476 0.834596
vt 0.496074 0.834425
vt 0.512540 0.907317
vt 0.516831 0.906661
vt 0.480107 0.831199
vt 0.494162 0.834224
vt 0.518708 0.906243
vt 0.531893 0.901742
vt 0.487005 0.905185
vt 0.525378 0.830405
vt 0.517880 0.830110
vt 0.522603 0.828853
vt 0.494592 0.904022
vt 0.489633 0.903301
vt 0.503283 0.831462
vt 0.515437 0.830621
vt 0.497215 0.904192
vt 0.509497 0.904670
vt 0.500625 0.831588
vt 0.495596 0.831908
vt 0.512048 0.904428
vt 0.516998 0.904141
vt 0.482369 0.829504
vt 0.493355 0.832007
vt 0.519204 0.903947
vt 0.529681 0.900457
vt 0.487620 0.902303
vt 0.524461 0.827657
vt 0.088467 0.836483
vt 0.083732 0.837338
vt 0.079985 0.803581
vt 0.084849 0.803700
vt 0.034725 0.717861
vt 0.055132 0.689997
vt 0.058775 0.693005
vt 0.039017 0.719941
vt 0.031069 0.730588
vt 0.036235 0.731964
vt 0.095244 0.721006
vt 0.100070 0.722653
vt 0.115071 0.693526
vt 0.111007 0.691000
vt 0.016448 0.816648
vt 0.021348 0.816503
vt 0.027965 0.847717
vt 0.023134 0.848998
vt 0.053678 0.726103
vt 0.052229 0.736330
vt 0.115125 0.726805
vt 0.101266 0.805252
vt 0.079783 0.686569
vt 0.070114 0.702792
vt 0.104227 0.846516
vt 0.133254 0.690156
vt 0.037418 0.817071
vt 0.043408 0.846299
vt 0.190457 0.318940
vt 0.203958 0.302758
vt 0.276356 0.302907
vt 0.289122 0.317338
vt 0.283864 0.126740
vt 0.300232 0.120485
vt 0.295769 0.310971
vt 0.280632 0.298408
vt 0.252769 0.080754
vt 0.259569 0.066097
vt 0.204657 0.086854
vt 0.192826 0.072466
vt 0.183677 0.312270
vt 0.186530 0.078740
vt 0.201240 0.091823
vt 0.199885 0.298188
vt 0.086846 0.850406
vt 0.046156 0.865398
vt 0.029720 0.870400
vt 0.023928 0.852095
vt 0.028668 0.850737
vt 0.030984 0.319400
vt 0.043427 0.098944
vt 0.178747 0.314565
vt 0.188462 0.323649
vt 0.179435 0.314899
vt 0.291530 0.322460
vt 0.304533 0.118909
vt 0.300414 0.313624
vt 0.261519 0.061067
vt 0.190389 0.067782
vt 0.182074 0.076268
vt 0.333301 0.329055
vt 0.273565 0.398994
vt 0.092030 0.400678
vt 0.030962 0.331858
vt 0.118984 0.679733
vt 0.122207 0.675535
vt 0.136712 0.685654
vt 0.333196 0.318438
vt 0.333301 0.087383
vt 0.136712 0.963221
vt 0.119459 0.967573
vt 0.088232 0.855385
vt 0.105575 0.851355
vt 0.056628 0.073960
vt 0.044064 0.850024
vt 0.060269 0.067326
vt 0.254806 0.007173
vt 0.274982 0.005123
vt 0.309891 0.053819
vt 0.067501 0.675535
vt 0.088895 0.014617
vt 0.186373 0.012639
vt 0.029863 0.767126
vt 0.046047 0.770788
vt 0.024560 0.766161
vt 0.079783 0.971687
vt 0.063641 0.977619
vt 0.396909 0.668772
vt 0.370207 0.668772
vt 0.360204 0.668772
vt 0.134814 0.668772
vt 0.095121 0.668772
vt 0.030962 0.633524
vt 0.030962 0.607563
vt 0.030962 0.539651
vt 0.030962 0.436330
vt 0.089706 0.404056
vt 0.095120 0.401082
vt 0.133597 0.401082
vt 0.358955 0.401082
vt 0.369268 0.401082
vt 0.396909 0.401081
vt 0.449999 0.447019
vt 0.449999 0.622875
vt 0.161133 0.841535
vt 0.166385 0.958942
vt 0.165288 0.967269
vt 0.159476 0.840128
vt 0.477259 0.826181
vt 0.480183 0.976761
vt 0.479439 0.973758
vt 0.475809 0.827694
vt 0.224768 0.962533
vt 0.589424 0.979222
vt 0.562187 0.683069
vt 0.699820 0.683069
vt 0.699820 0.979222
vt 0.224643 0.968164
vt 0.727461 0.683069
vt 0.837857 0.683069
vt 0.837857 0.979222
vt 0.700224 0.979222
vn -1.0000 0.0000 0.0000
vn 0.0000 1.0000 0.0000
vn 1.0000 -0.0000 0.0000
vn 0.0000 -1.0000 0.0000
vn 0.0000 0.7282 0.6854
vn 0.0000 -0.7282 -0.6854
vn 0.0000 0.0000 1.0000
vn -0.0000 0.0000 -1.0000
vn 0.0000 -0.7282 0.6854
vn 0.0000 0.7282 -0.6854
vn 0.5774 0.7590 0.3010
vn 0.5694 0.3260 0.7546
vn 0.5694 -0.3260 0.7546
vn 0.5773 -0.7590 0.3010
vn -0.7071 -0.7071 -0.0000
vn -0.7071 0.7071 -0.0000
vn 0.0000 0.9296 0.3686
vn 0.7071 0.7071 0.0000
vn 0.7071 -0.7071 -0.0000
vn -0.7071 -0.5149 -0.4846
vn -0.7071 0.5149 0.4846
vn 0.0000 0.3966 0.9180
vn 0.7071 0.5149 0.4846
vn 0.7071 -0.5149 -0.4846
vn -0.7071 0.0000 -0.7071
vn -0.7071 0.0000 0.7071
vn 0.0000 -0.3966 0.9180
vn 0.7071 0.0000 0.7071
vn 0.7071 0.0000 -0.7071
vn -0.7071 0.5149 -0.4846
vn -0.7071 -0.5149 0.4846
vn 0.0000 -0.9296 0.3686
vn 0.7071 -0.5149 0.4846
vn 0.7071 0.5149 -0.4846
vn -0.5774 0.7590 0.3010
vn -0.5694 0.3260 0.7546
vn -0.5694 -0.3260 0.7546
vn -0.5774 -0.7590 0.3010
vn -0.5994 0.7923 0.1141
vn -0.6279 0.7672 0.1311
vn -0.5994 -0.7923 0.1141
vn -0.6279 -0.7672 0.1311
vn -0.0000 0.5396 0.8419
vn 0.0000 -0.5396 0.8419
vn 0.5994 0.7923 0.1141
vn 0.6278 0.7672 0.1311
vn 0.5994 -0.7923 0.1141
vn 0.6278 -0.7672 0.1311
vn 0.0000 0.5549 -0.8319
vn 0.0000 0.5550 -0.8319
vn 0.0000 -0.5550 -0.8319
vn -0.4889 -0.7874 -0.3754
vn -0.5033 -0.7809 -0.3699
vn -0.4889 0.7874 -0.3754
vn -0.5033 0.7809 -0.3699
vn -0.5117 0.7780 0.3644
vn -0.5299 0.7692 0.3571
vn -0.5117 -0.7780 0.3644
vn -0.5299 -0.7692 0.3571
vn 0.5117 0.7780 0.3644
vn 0.5299 0.7692 0.3571
vn 0.5117 -0.7780 0.3644
vn 0.5299 -0.7692 0.3571
vn 0.4888 0.7875 -0.3754
vn 0.5034 0.7809 -0.3699
vn 0.4888 -0.7874 -0.3754
vn 0.5034 -0.7809 -0.3699
vn 0.7565 0.6540 0.0000
vn 0.8764 -0.4815 0.0000
vn -0.7562 0.6543 0.0000
vn -0.8764 -0.4815 0.0000
vn 0.0000 -0.7724 0.6351
vn 0.0000 0.7724 0.6351
vn 0.6964 -0.3826 0.6072
vn 0.5996 0.5218 0.6068
vn 0.5990 0.5178 0.6108
vn -0.5987 0.5180 0.6109
vn -0.5993 0.5220 0.6070
vn -0.6964 -0.3826 0.6072
vn -0.0097 -1.0000 0.0000
vn -0.8773 0.4800 -0.0000
vn 0.7380 -0.6748 0.0000
vn -0.7435 -0.6688 0.0000
vn -0.7434 -0.6688 0.0000
vn 0.7407 0.6718 -0.0000
vn -0.0065 -0.6717 0.7408
vn -0.0018 -0.7457 0.6663
vn -0.6131 0.3354 0.7153
vn -0.6126 0.3352 0.7158
vn 0.0000 0.6718 0.7407
vn 0.7887 0.0000 0.6147
vn 0.7076 -0.0020 0.7066
vn 0.5115 0.4639 0.7233
vn -0.5135 -0.4619 0.7232
vn 0.5763 -0.5159 0.6339
vn 0.5631 -0.5149 0.6464
vn 0.8918 -0.4524 0.0000
usemtl Material_#72
s off
f 3/1/1 5/2/1 6/3/1
f 6/3/1 2/4/1 3/1/1
f 41/5/2 42/6/2 9/7/2
f 9/7/2 7/8/2 41/5/2
f 10/9/3 8/10/3 12/11/3
f 12/11/3 13/12/3 10/9/3
f 11/13/4 4/14/4 1/15/4
f 1/15/4 14/16/4 11/13/4
f 15/17/1 17/18/1 5/2/1
f 5/2/1 3/1/1 15/17/1
f 44/19/5 45/20/5 46/21/5
f 46/21/5 43/22/5 44/19/5
f 8/10/3 18/23/3 20/24/3
f 20/24/3 12/11/3 8/10/3
f 19/25/6 16/26/6 4/14/6
f 4/14/6 11/13/6 19/25/6
f 74/27/1 75/28/1 76/29/1
f 76/29/1 73/30/1 74/27/1
f 78/31/7 79/32/7 80/33/7
f 80/33/7 77/34/7 78/31/7
f 82/35/3 83/36/3 84/37/3
f 84/37/3 81/38/3 82/35/3
f 86/39/8 87/40/8 88/41/8
f 88/41/8 85/42/8 86/39/8
f 21/43/1 27/44/1 29/45/1
f 29/45/1 23/46/1 21/43/1
f 52/47/9 53/48/9 54/49/9
f 54/49/9 51/50/9 52/47/9
f 30/51/3 32/52/3 26/53/3
f 26/53/3 24/54/3 30/51/3
f 31/55/10 28/56/10 22/57/10
f 22/57/10 25/58/10 31/55/10
f 27/44/1 33/59/1 36/60/1
f 36/60/1 29/45/1 27/44/1
f 35/61/4 38/62/4 56/63/4
f 56/63/4 55/64/4 35/61/4
f 37/65/3 40/66/3 32/52/3
f 32/52/3 30/51/3 37/65/3
f 39/67/2 34/68/2 28/56/2
f 28/56/2 31/55/2 39/67/2
f 7/69/8 9/70/8 10/71/8
f 10/71/8 13/72/8 14/73/8
f 7/69/8 10/71/8 14/73/8
f 14/73/8 1/74/8 2/75/8
f 7/69/8 14/73/8 2/75/8
f 6/76/8 7/69/8 2/75/8
f 38/77/8 35/78/8 36/79/8
f 36/79/8 33/80/8 34/81/8
f 38/77/8 36/79/8 34/81/8
f 34/81/8 39/82/8 40/83/8
f 38/77/8 34/81/8 40/83/8
f 37/84/8 38/77/8 40/83/8
f 46/21/11 8/10/11 42/6/11
f 50/85/12 18/23/12 45/20/12
f 54/49/13 24/54/13 49/86/13
f 56/63/14 30/51/14 53/48/14
f 3/1/15 2/4/15 1/87/15
f 1/87/15 4/88/15 3/1/15
f 6/3/16 5/2/16 41/5/16
f 41/5/16 7/8/16 6/3/16
f 42/6/17 41/5/17 43/22/17
f 43/22/17 46/21/17 42/6/17
f 9/7/18 42/6/18 8/10/18
f 8/10/18 10/9/18 9/7/18
f 13/12/19 12/11/19 11/13/19
f 11/13/19 14/16/19 13/12/19
f 15/17/20 3/1/20 4/88/20
f 4/88/20 16/89/20 15/17/20
f 5/2/21 17/18/21 44/19/21
f 44/19/21 43/22/21 5/2/21
f 45/20/22 44/19/22 47/90/22
f 47/90/22 50/85/22 45/20/22
f 46/21/23 45/20/23 18/23/23
f 18/23/23 8/10/23 46/21/23
f 12/11/24 20/24/24 19/25/24
f 19/25/24 11/13/24 12/11/24
f 73/30/25 88/91/25 87/92/25
f 87/92/25 74/27/25 73/30/25
f 75/28/26 78/31/26 77/34/26
f 77/34/26 76/29/26 75/28/26
f 49/86/27 48/93/27 51/50/27
f 51/50/27 54/49/27 49/86/27
f 79/32/28 82/35/28 81/38/28
f 81/38/28 80/33/28 79/32/28
f 83/36/29 86/39/29 85/42/29
f 85/42/29 84/37/29 83/36/29
f 27/44/30 21/43/30 22/94/30
f 22/94/30 28/95/30 27/44/30
f 23/46/31 29/45/31 52/47/31
f 52/47/31 51/50/31 23/46/31
f 53/48/32 52/47/32 55/64/32
f 55/64/32 56/63/32 53/48/32
f 54/49/33 53/48/33 30/51/33
f 30/51/33 24/54/33 54/49/33
f 26/53/34 32/52/34 31/55/34
f 31/55/34 25/58/34 26/53/34
f 33/59/16 27/44/16 28/95/16
f 28/95/16 34/96/16 33/59/16
f 29/45/15 36/60/15 35/61/15
f 35/61/15 55/64/15 29/45/15
f 56/63/19 38/62/19 37/65/19
f 37/65/19 30/51/19 56/63/19
f 32/52/18 40/66/18 39/67/18
f 39/67/18 31/55/18 32/52/18
f 5/2/35 43/22/35 41/5/35
f 17/18/36 47/90/36 44/19/36
f 23/46/37 51/50/37 48/93/37
f 29/45/38 55/64/38 52/47/38
f 21/43/1 23/46/1 59/97/1
f 59/97/1 58/98/1 21/43/1
f 60/99/1 17/18/1 15/17/1
f 15/17/1 57/100/1 60/99/1
f 48/93/7 49/86/7 63/101/7
f 63/101/7 62/102/7 48/93/7
f 50/85/7 47/90/7 61/103/7
f 61/103/7 64/104/7 50/85/7
f 66/105/3 24/54/3 26/53/3
f 26/53/3 67/106/3 66/105/3
f 20/24/3 18/23/3 65/107/3
f 65/107/3 68/108/3 20/24/3
f 25/58/8 22/57/8 71/109/8
f 71/109/8 70/110/8 25/58/8
f 16/26/8 19/25/8 69/111/8
f 69/111/8 72/112/8 16/26/8
f 57/100/25 15/17/25 16/89/25
f 16/89/25 72/113/25 57/100/25
f 22/94/25 21/43/25 58/98/25
f 58/98/25 71/114/25 22/94/25
f 59/97/26 23/46/26 48/93/26
f 48/93/26 62/102/26 59/97/26
f 47/90/26 17/18/26 60/99/26
f 60/99/26 61/103/26 47/90/26
f 49/86/28 24/54/28 66/105/28
f 66/105/28 63/101/28 49/86/28
f 65/107/28 18/23/28 50/85/28
f 50/85/28 64/104/28 65/107/28
f 67/106/29 26/53/29 25/58/29
f 25/58/29 70/110/29 67/106/29
f 19/25/29 20/24/29 68/108/29
f 68/108/29 69/111/29 19/25/29
f 58/98/39 59/97/39 75/115/39
f 75/115/40 74/116/40 58/98/40
f 76/117/41 60/99/41 57/100/41
f 57/100/42 73/118/42 76/117/42
f 62/102/43 63/101/43 79/119/43
f 79/119/43 78/120/43 62/102/43
f 64/104/44 61/103/44 77/121/44
f 77/121/44 80/122/44 64/104/44
f 82/123/45 66/105/45 67/106/45
f 67/106/46 83/124/46 82/123/46
f 68/108/47 65/107/47 81/125/47
f 81/125/48 84/126/48 68/108/48
f 70/110/49 71/109/49 87/127/49
f 87/127/50 86/128/50 70/110/50
f 72/112/51 69/111/51 85/129/51
f 85/129/51 88/130/51 72/112/51
f 73/118/52 57/100/52 72/113/52
f 72/113/53 88/131/53 73/118/53
f 71/114/54 58/98/54 74/116/54
f 74/116/55 87/132/55 71/114/55
f 75/115/56 59/97/56 62/102/56
f 62/102/57 78/120/57 75/115/57
f 61/103/58 60/99/58 76/117/58
f 76/117/59 77/121/59 61/103/59
f 63/101/60 66/105/60 82/123/60
f 82/123/61 79/119/61 63/101/61
f 81/125/62 65/107/62 64/104/62
f 64/104/63 80/122/63 81/125/63
f 83/124/64 67/106/64 70/110/64
f 70/110/65 86/128/65 83/124/65
f 69/111/66 68/108/66 84/126/66
f 84/126/67 85/129/67 69/111/67
f 92/133/68 91/134/68 96/135/68
f 96/135/68 97/136/68 92/133/68
f 95/137/69 90/138/69 89/139/69
f 89/139/69 98/140/69 95/137/69
f 155/141/4 95/137/4 98/140/4
f 98/140/4 153/142/4 155/141/4
f 105/143/2 107/144/2 97/136/2
f 97/136/2 96/135/2 105/143/2
f 101/145/70 107/144/70 105/143/70
f 105/143/70 102/146/70 101/145/70
f 106/147/71 108/148/71 146/149/71
f 146/149/71 147/150/71 106/147/71
f 153/142/72 98/140/72 111/151/72
f 111/151/72 152/152/72 153/142/72
f 107/144/73 109/153/73 112/154/73
f 112/154/73 97/136/73 107/144/73
f 89/139/74 94/155/74 148/156/74
f 112/154/75 93/157/75 92/133/75
f 92/133/76 97/136/76 112/154/76
f 109/153/77 107/144/77 101/145/77
f 101/145/78 100/158/78 109/153/78
f 110/159/79 145/160/79 146/149/79
f 146/149/79 108/148/79 110/159/79
f 123/161/80 120/162/80 116/163/80
f 116/163/80 122/164/80 123/161/80
f 114/165/1 125/166/1 126/167/1
f 126/167/1 115/168/1 114/165/1
f 113/169/81 127/170/81 125/166/81
f 125/166/81 114/165/81 113/169/81
f 113/169/2 118/171/2 128/172/2
f 128/172/2 127/170/2 113/169/2
f 130/173/3 131/174/3 117/175/3
f 117/175/3 121/176/3 130/173/3
f 92/133/3 93/157/3 143/177/3
f 143/177/3 91/134/3 92/133/3
f 99/178/1 156/179/1 103/180/1
f 103/180/1 104/181/1 99/178/1
f 138/182/7 99/183/7 119/184/7
f 124/185/7 119/184/7 129/186/7
f 123/161/82 130/173/82 121/176/82
f 121/176/82 120/162/82 123/161/82
f 116/163/83 115/168/83 126/167/83
f 126/167/84 122/164/84 116/163/84
f 118/171/85 117/175/85 131/174/85
f 131/174/85 128/172/85 118/171/85
f 123/161/86 122/164/86 136/187/86
f 136/187/87 124/185/87 123/161/87
f 126/167/26 125/166/26 132/188/26
f 132/188/26 137/189/26 126/167/26
f 125/166/88 127/170/88 133/190/88
f 133/190/89 132/188/89 125/166/89
f 127/170/90 128/172/90 134/191/90
f 134/191/90 133/190/90 127/170/90
f 131/174/91 130/173/91 129/186/91
f 129/186/92 135/192/92 131/174/92
f 135/192/93 134/191/93 128/172/93
f 128/172/93 131/174/93 135/192/93
f 137/189/94 136/187/94 122/164/94
f 122/164/94 126/167/94 137/189/94
f 124/185/95 129/186/95 130/173/95
f 130/173/96 123/161/96 124/185/96
f 124/185/7 136/187/7 93/193/7
f 93/193/7 112/194/7 109/195/7
f 93/193/7 109/195/7 100/196/7
f 124/185/7 93/193/7 100/196/7
f 100/158/1 140/197/1 139/198/1
f 139/198/1 138/199/1 100/158/1
f 100/196/7 138/182/7 119/184/7
f 119/184/7 124/185/7 100/196/7
f 101/145/1 102/146/1 140/197/1
f 140/197/1 100/158/1 101/145/1
f 93/193/7 136/187/7 137/189/7
f 137/189/7 141/200/7 93/193/7
f 132/188/7 94/201/7 141/200/7
f 141/200/7 137/189/7 132/188/7
f 94/202/3 149/203/3 142/204/3
f 142/204/3 141/205/3 94/202/3
f 93/157/3 141/205/3 142/204/3
f 142/204/3 143/177/3 93/157/3
f 129/186/7 119/184/7 99/183/7
f 129/186/7 99/183/7 144/206/7
f 135/192/7 129/186/7 144/206/7
f 144/207/79 99/178/79 104/181/79
f 135/192/7 144/206/7 145/208/7
f 145/208/7 134/191/7 135/192/7
f 145/160/79 144/207/79 104/181/79
f 104/181/79 146/149/79 145/160/79
f 104/181/71 103/180/71 147/150/71
f 147/150/71 146/149/71 104/181/71
f 133/190/7 152/209/7 111/210/7
f 111/210/7 148/211/7 133/190/7
f 111/151/74 98/140/74 89/139/74
f 89/139/74 148/156/74 111/151/74
f 132/188/7 133/190/7 148/211/7
f 148/211/7 94/201/7 132/188/7
f 94/155/3 89/139/3 90/138/3
f 90/138/3 149/212/3 94/155/3
f 134/191/7 145/208/7 110/213/7
f 110/213/7 150/214/7 134/191/7
f 110/159/72 108/148/72 151/215/72
f 151/215/72 150/216/72 110/159/72
f 134/191/7 150/214/7 152/209/7
f 152/209/7 133/190/7 134/191/7
f 152/152/72 150/216/72 151/215/72
f 151/215/72 153/142/72 152/152/72
f 108/148/4 106/147/4 154/217/4
f 154/217/4 151/215/4 108/148/4
f 153/142/4 151/215/4 154/217/4
f 154/217/4 155/141/4 153/142/4
f 99/178/1 138/218/1 139/219/1
f 139/219/1 156/179/1 99/178/1
f 91/220/8 143/221/8 142/222/8 149/223/8 90/224/8 95/225/8 155/226/8 154/227/8 106/228/8 147/229/8 103/230/8 156/231/8 139/232/8 140/233/8 102/234/8 105/235/8 96/236/8
usemtl Material_#73
f 158/237/4 164/238/4 165/239/4
f 165/239/4 157/240/4 158/237/4
f 159/241/2 160/242/2 162/243/2
f 162/243/2 161/244/2 159/241/2
f 165/239/7 166/245/7 160/242/7
f 165/246/7 160/247/7 159/248/7
f 157/249/7 165/246/7 159/248/7
f 163/250/3 162/243/3 160/242/3
f 160/242/3 166/245/3 163/250/3
f 164/251/8 158/252/8 161/253/8
f 164/251/8 161/253/8 162/254/8
f 163/250/8 164/238/8 162/243/8
f 158/237/1 157/240/1 159/241/1
f 159/241/1 161/244/1 158/237/1
f 165/239/97 164/238/97 163/250/97
f 163/250/97 166/245/97 165/239/97
